<?xml version="1.0" encoding="UTF-8" standalone="no"?>
<!DOCTYPE svg PUBLIC "-//W3C//DTD SVG 1.1//EN"
 "http://www.w3.org/Graphics/SVG/1.1/DTD/svg11.dtd">
<!-- Generated by graphviz version 2.38.0 (20140413.2041)
 -->
<!-- Title: controllers_diagram Pages: 1 -->
<svg width="1210pt" height="1164pt"
 viewBox="0.00 0.00 1210.11 1164.29" xmlns="http://www.w3.org/2000/svg" xmlns:xlink="http://www.w3.org/1999/xlink">
<g id="graph0" class="graph" transform="scale(1 1) rotate(0) translate(501.656 579.246)">
<title>controllers_diagram</title>
<polygon fill="white" stroke="none" points="-501.656,585.041 -501.656,-579.246 708.45,-579.246 708.45,585.041 -501.656,585.041"/>
<!-- _diagram_info -->
<g id="node1" class="node"><title>_diagram_info</title>
<text text-anchor="start" x="505.55" y="438.9" font-family="Times,serif" font-size="13.00">Controllers diagram</text>
<text text-anchor="start" x="505.55" y="451.9" font-family="Times,serif" font-size="13.00">Date: Jul 28 2014 &#45; 14:06</text>
<text text-anchor="start" x="505.55" y="464.9" font-family="Times,serif" font-size="13.00">Migration version: 20140707114710</text>
<text text-anchor="start" x="505.55" y="477.9" font-family="Times,serif" font-size="13.00">Generated by RailRoady 1.1.1</text>
<text text-anchor="start" x="505.55" y="490.9" font-family="Times,serif" font-size="13.00">http://railroady.prestonlee.com</text>
</g>
<!-- ApplicationController -->
<g id="node2" class="node"><title>ApplicationController</title>
<path fill="none" stroke="black" d="M-298.852,170.549C-298.852,170.549 4.10136,170.549 4.10136,170.549 10.1014,170.549 16.1014,164.549 16.1014,158.549 16.1014,158.549 16.1014,50.549 16.1014,50.549 16.1014,44.549 10.1014,38.549 4.10136,38.549 4.10136,38.549 -298.852,38.549 -298.852,38.549 -304.852,38.549 -310.852,44.549 -310.852,50.549 -310.852,50.549 -310.852,158.549 -310.852,158.549 -310.852,164.549 -304.852,170.549 -298.852,170.549"/>
<text text-anchor="middle" x="-147.375" y="53.749" font-family="Times,serif" font-size="14.00">ApplicationController</text>
<polyline fill="none" stroke="black" points="-310.852,60.549 16.1014,60.549 "/>
<text text-anchor="start" x="-302.852" y="75.749" font-family="Times,serif" font-size="14.00">put_and_get_search_params_in_session</text>
<text text-anchor="start" x="-302.852" y="89.749" font-family="Times,serif" font-size="14.00">render_404</text>
<text text-anchor="start" x="-302.852" y="103.749" font-family="Times,serif" font-size="14.00">set_locale</text>
<polyline fill="none" stroke="black" points="-310.852,110.549 16.1014,110.549 "/>
<polyline fill="none" stroke="black" points="-310.852,134.549 16.1014,134.549 "/>
<text text-anchor="start" x="-302.852" y="149.749" font-family="Times,serif" font-size="14.00">_layout</text>
<text text-anchor="start" x="-302.852" y="163.749" font-family="Times,serif" font-size="14.00">extract_locale_from_url_then_accept_language_header</text>
</g>
<!-- BankAccountsController -->
<g id="node3" class="node"><title>BankAccountsController</title>
<path fill="none" stroke="black" d="M50.4041,101.947C50.4041,101.947 182.377,101.947 182.377,101.947 188.377,101.947 194.377,95.9467 194.377,89.9467 194.377,89.9467 194.377,-88.0533 194.377,-88.0533 194.377,-94.0533 188.377,-100.053 182.377,-100.053 182.377,-100.053 50.4041,-100.053 50.4041,-100.053 44.4041,-100.053 38.4041,-94.0533 38.4041,-88.0533 38.4041,-88.0533 38.4041,89.9467 38.4041,89.9467 38.4041,95.9467 44.4041,101.947 50.4041,101.947"/>
<text text-anchor="middle" x="116.39" y="-84.8533" font-family="Times,serif" font-size="14.00">BankAccountsController</text>
<polyline fill="none" stroke="black" points="38.4041,-78.0533 194.377,-78.0533 "/>
<text text-anchor="start" x="46.4041" y="-62.8533" font-family="Times,serif" font-size="14.00">create</text>
<text text-anchor="start" x="46.4041" y="-48.8533" font-family="Times,serif" font-size="14.00">destroy</text>
<text text-anchor="start" x="46.4041" y="-34.8533" font-family="Times,serif" font-size="14.00">edit</text>
<text text-anchor="start" x="46.4041" y="-20.8533" font-family="Times,serif" font-size="14.00">index</text>
<text text-anchor="start" x="46.4041" y="-6.85327" font-family="Times,serif" font-size="14.00">new</text>
<text text-anchor="start" x="46.4041" y="7.14673" font-family="Times,serif" font-size="14.00">show</text>
<text text-anchor="start" x="46.4041" y="21.1467" font-family="Times,serif" font-size="14.00">update</text>
<polyline fill="none" stroke="black" points="38.4041,27.9467 194.377,27.9467 "/>
<polyline fill="none" stroke="black" points="38.4041,51.9467 194.377,51.9467 "/>
<text text-anchor="start" x="46.4041" y="67.1467" font-family="Times,serif" font-size="14.00">_layout</text>
<text text-anchor="start" x="46.4041" y="81.1467" font-family="Times,serif" font-size="14.00">bank_account_params</text>
<text text-anchor="start" x="46.4041" y="95.1467" font-family="Times,serif" font-size="14.00">set_bank_account</text>
</g>
<!-- ApplicationController&#45;&gt;BankAccountsController -->
<g id="edge1" class="edge"><title>ApplicationController&#45;&gt;BankAccountsController</title>
<path fill="none" stroke="black" d="M16.2959,40.262C23.7564,37.3317 31.0726,34.458 38.141,31.6817"/>
</g>
<!-- BankDepositsController -->
<g id="node4" class="node"><title>BankDepositsController</title>
<path fill="none" stroke="black" d="M-126.709,559.06C-126.709,559.06 17.698,559.06 17.698,559.06 23.698,559.06 29.698,553.06 29.698,547.06 29.698,547.06 29.698,355.06 29.698,355.06 29.698,349.06 23.698,343.06 17.698,343.06 17.698,343.06 -126.709,343.06 -126.709,343.06 -132.709,343.06 -138.709,349.06 -138.709,355.06 -138.709,355.06 -138.709,547.06 -138.709,547.06 -138.709,553.06 -132.709,559.06 -126.709,559.06"/>
<text text-anchor="middle" x="-54.5056" y="358.26" font-family="Times,serif" font-size="14.00">BankDepositsController</text>
<polyline fill="none" stroke="black" points="-138.709,365.06 29.698,365.06 "/>
<text text-anchor="start" x="-130.709" y="380.26" font-family="Times,serif" font-size="14.00">create</text>
<text text-anchor="start" x="-130.709" y="394.26" font-family="Times,serif" font-size="14.00">destroy</text>
<text text-anchor="start" x="-130.709" y="408.26" font-family="Times,serif" font-size="14.00">edit</text>
<text text-anchor="start" x="-130.709" y="422.26" font-family="Times,serif" font-size="14.00">index</text>
<text text-anchor="start" x="-130.709" y="436.26" font-family="Times,serif" font-size="14.00">new</text>
<text text-anchor="start" x="-130.709" y="450.26" font-family="Times,serif" font-size="14.00">show</text>
<text text-anchor="start" x="-130.709" y="464.26" font-family="Times,serif" font-size="14.00">update</text>
<polyline fill="none" stroke="black" points="-138.709,471.06 29.698,471.06 "/>
<polyline fill="none" stroke="black" points="-138.709,495.06 29.698,495.06 "/>
<text text-anchor="start" x="-130.709" y="510.26" font-family="Times,serif" font-size="14.00">_layout</text>
<text text-anchor="start" x="-130.709" y="524.26" font-family="Times,serif" font-size="14.00">bank_deposit_params</text>
<text text-anchor="start" x="-130.709" y="538.26" font-family="Times,serif" font-size="14.00">new_bank_deposit_params</text>
<text text-anchor="start" x="-130.709" y="552.26" font-family="Times,serif" font-size="14.00">set_bank_deposit</text>
</g>
<!-- ApplicationController&#45;&gt;BankDepositsController -->
<g id="edge2" class="edge"><title>ApplicationController&#45;&gt;BankDepositsController</title>
<path fill="none" stroke="black" d="M-129.579,170.95C-116.543,219.587 -98.568,286.657 -83.4745,342.973"/>
</g>
<!-- HomeController -->
<g id="node5" class="node"><title>HomeController</title>
<path fill="none" stroke="black" d="M-422.846,-392.833C-422.846,-392.833 -339.087,-392.833 -339.087,-392.833 -333.087,-392.833 -327.087,-398.833 -327.087,-404.833 -327.087,-404.833 -327.087,-470.833 -327.087,-470.833 -327.087,-476.833 -333.087,-482.833 -339.087,-482.833 -339.087,-482.833 -422.846,-482.833 -422.846,-482.833 -428.846,-482.833 -434.846,-476.833 -434.846,-470.833 -434.846,-470.833 -434.846,-404.833 -434.846,-404.833 -434.846,-398.833 -428.846,-392.833 -422.846,-392.833"/>
<text text-anchor="middle" x="-380.967" y="-467.633" font-family="Times,serif" font-size="14.00">HomeController</text>
<polyline fill="none" stroke="black" points="-434.846,-460.833 -327.087,-460.833 "/>
<text text-anchor="start" x="-426.846" y="-445.633" font-family="Times,serif" font-size="14.00">index</text>
<polyline fill="none" stroke="black" points="-434.846,-438.833 -327.087,-438.833 "/>
<polyline fill="none" stroke="black" points="-434.846,-414.833 -327.087,-414.833 "/>
<text text-anchor="start" x="-426.846" y="-399.633" font-family="Times,serif" font-size="14.00">_layout</text>
</g>
<!-- ApplicationController&#45;&gt;HomeController -->
<g id="edge3" class="edge"><title>ApplicationController&#45;&gt;HomeController</title>
<path fill="none" stroke="black" d="M-197.567,38.5101C-221.674,4.50586 -249.522,-38.4229 -269.184,-79.8407 -320.144,-187.186 -355.255,-323.417 -371.216,-392.794"/>
</g>
<!-- MedicalTreatmentTypesController -->
<g id="node6" class="node"><title>MedicalTreatmentTypesController</title>
<path fill="none" stroke="black" d="M-0.240722,-121.845C-0.240722,-121.845 233.533,-121.845 233.533,-121.845 239.533,-121.845 245.533,-127.845 245.533,-133.845 245.533,-133.845 245.533,-339.845 245.533,-339.845 245.533,-345.845 239.533,-351.845 233.533,-351.845 233.533,-351.845 -0.240722,-351.845 -0.240722,-351.845 -6.24072,-351.845 -12.2407,-345.845 -12.2407,-339.845 -12.2407,-339.845 -12.2407,-133.845 -12.2407,-133.845 -12.2407,-127.845 -6.24072,-121.845 -0.240722,-121.845"/>
<text text-anchor="middle" x="116.646" y="-336.645" font-family="Times,serif" font-size="14.00">MedicalTreatmentTypesController</text>
<polyline fill="none" stroke="black" points="-12.2407,-329.845 245.533,-329.845 "/>
<text text-anchor="start" x="-4.24072" y="-314.645" font-family="Times,serif" font-size="14.00">create</text>
<text text-anchor="start" x="-4.24072" y="-300.645" font-family="Times,serif" font-size="14.00">destroy</text>
<text text-anchor="start" x="-4.24072" y="-286.645" font-family="Times,serif" font-size="14.00">edit</text>
<text text-anchor="start" x="-4.24072" y="-272.645" font-family="Times,serif" font-size="14.00">index</text>
<text text-anchor="start" x="-4.24072" y="-258.645" font-family="Times,serif" font-size="14.00">new</text>
<text text-anchor="start" x="-4.24072" y="-244.645" font-family="Times,serif" font-size="14.00">price_finder</text>
<text text-anchor="start" x="-4.24072" y="-230.645" font-family="Times,serif" font-size="14.00">show</text>
<text text-anchor="start" x="-4.24072" y="-216.645" font-family="Times,serif" font-size="14.00">update</text>
<polyline fill="none" stroke="black" points="-12.2407,-209.845 245.533,-209.845 "/>
<polyline fill="none" stroke="black" points="-12.2407,-185.845 245.533,-185.845 "/>
<text text-anchor="start" x="-4.24072" y="-170.645" font-family="Times,serif" font-size="14.00">_layout</text>
<text text-anchor="start" x="-4.24072" y="-156.645" font-family="Times,serif" font-size="14.00">authorize_medical_treatment_type_access!</text>
<text text-anchor="start" x="-4.24072" y="-142.645" font-family="Times,serif" font-size="14.00">medical_treatment_type_params</text>
<text text-anchor="start" x="-4.24072" y="-128.645" font-family="Times,serif" font-size="14.00">set_medical_treatment_type</text>
</g>
<!-- ApplicationController&#45;&gt;MedicalTreatmentTypesController -->
<g id="edge4" class="edge"><title>ApplicationController&#45;&gt;MedicalTreatmentTypesController</title>
<path fill="none" stroke="black" d="M-96.1562,38.32C-61.0659,-7.05371 -13.6007,-68.4288 27.5984,-121.701"/>
</g>
<!-- MedicalTreatmentsController -->
<g id="node7" class="node"><title>MedicalTreatmentsController</title>
<path fill="none" stroke="black" d="M-253.984,-83.0407C-253.984,-83.0407 -51.314,-83.0407 -51.314,-83.0407 -45.314,-83.0407 -39.314,-89.0407 -39.314,-95.0407 -39.314,-95.0407 -39.314,-287.041 -39.314,-287.041 -39.314,-293.041 -45.314,-299.041 -51.314,-299.041 -51.314,-299.041 -253.984,-299.041 -253.984,-299.041 -259.984,-299.041 -265.984,-293.041 -265.984,-287.041 -265.984,-287.041 -265.984,-95.0407 -265.984,-95.0407 -265.984,-89.0407 -259.984,-83.0407 -253.984,-83.0407"/>
<text text-anchor="middle" x="-152.649" y="-283.841" font-family="Times,serif" font-size="14.00">MedicalTreatmentsController</text>
<polyline fill="none" stroke="black" points="-265.984,-277.041 -39.314,-277.041 "/>
<text text-anchor="start" x="-257.984" y="-261.841" font-family="Times,serif" font-size="14.00">create</text>
<text text-anchor="start" x="-257.984" y="-247.841" font-family="Times,serif" font-size="14.00">destroy</text>
<text text-anchor="start" x="-257.984" y="-233.841" font-family="Times,serif" font-size="14.00">edit</text>
<text text-anchor="start" x="-257.984" y="-219.841" font-family="Times,serif" font-size="14.00">index</text>
<text text-anchor="start" x="-257.984" y="-205.841" font-family="Times,serif" font-size="14.00">new</text>
<text text-anchor="start" x="-257.984" y="-191.841" font-family="Times,serif" font-size="14.00">show</text>
<text text-anchor="start" x="-257.984" y="-177.841" font-family="Times,serif" font-size="14.00">update</text>
<polyline fill="none" stroke="black" points="-265.984,-171.041 -39.314,-171.041 "/>
<polyline fill="none" stroke="black" points="-265.984,-147.041 -39.314,-147.041 "/>
<text text-anchor="start" x="-257.984" y="-131.841" font-family="Times,serif" font-size="14.00">_layout</text>
<text text-anchor="start" x="-257.984" y="-117.841" font-family="Times,serif" font-size="14.00">authorize_medical_treatment_access!</text>
<text text-anchor="start" x="-257.984" y="-103.841" font-family="Times,serif" font-size="14.00">medical_treatment_params</text>
<text text-anchor="start" x="-257.984" y="-89.8407" font-family="Times,serif" font-size="14.00">set_medical_treatment</text>
</g>
<!-- ApplicationController&#45;&gt;MedicalTreatmentsController -->
<g id="edge5" class="edge"><title>ApplicationController&#45;&gt;MedicalTreatmentsController</title>
<path fill="none" stroke="black" d="M-148.559,38.2129C-149.195,2.55303 -149.995,-42.3077 -150.719,-82.8693"/>
</g>
<!-- OfficesController -->
<g id="node8" class="node"><title>OfficesController</title>
<path fill="none" stroke="black" d="M-450.718,249.738C-450.718,249.738 -360.739,249.738 -360.739,249.738 -354.739,249.738 -348.739,243.738 -348.739,237.738 -348.739,237.738 -348.739,87.7383 -348.739,87.7383 -348.739,81.7383 -354.739,75.7383 -360.739,75.7383 -360.739,75.7383 -450.718,75.7383 -450.718,75.7383 -456.718,75.7383 -462.718,81.7383 -462.718,87.7383 -462.718,87.7383 -462.718,237.738 -462.718,237.738 -462.718,243.738 -456.718,249.738 -450.718,249.738"/>
<text text-anchor="middle" x="-405.729" y="90.9383" font-family="Times,serif" font-size="14.00">OfficesController</text>
<polyline fill="none" stroke="black" points="-462.718,97.7383 -348.739,97.7383 "/>
<text text-anchor="start" x="-454.718" y="112.938" font-family="Times,serif" font-size="14.00">create</text>
<text text-anchor="start" x="-454.718" y="126.938" font-family="Times,serif" font-size="14.00">edit</text>
<text text-anchor="start" x="-454.718" y="140.938" font-family="Times,serif" font-size="14.00">new</text>
<text text-anchor="start" x="-454.718" y="154.938" font-family="Times,serif" font-size="14.00">show</text>
<text text-anchor="start" x="-454.718" y="168.938" font-family="Times,serif" font-size="14.00">update</text>
<polyline fill="none" stroke="black" points="-462.718,175.738 -348.739,175.738 "/>
<polyline fill="none" stroke="black" points="-462.718,199.738 -348.739,199.738 "/>
<text text-anchor="start" x="-454.718" y="214.938" font-family="Times,serif" font-size="14.00">_layout</text>
<text text-anchor="start" x="-454.718" y="228.938" font-family="Times,serif" font-size="14.00">office_params</text>
<text text-anchor="start" x="-454.718" y="242.938" font-family="Times,serif" font-size="14.00">set_office</text>
</g>
<!-- ApplicationController&#45;&gt;OfficesController -->
<g id="edge6" class="edge"><title>ApplicationController&#45;&gt;OfficesController</title>
<path fill="none" stroke="black" d="M-310.994,141.401C-324.213,144.378 -336.912,147.239 -348.482,149.844"/>
</g>
<!-- PassthroughController -->
<g id="node9" class="node"><title>PassthroughController</title>
<path fill="none" stroke="black" d="M321.282,201.892C321.282,201.892 439.275,201.892 439.275,201.892 445.275,201.892 451.275,195.892 451.275,189.892 451.275,189.892 451.275,123.892 451.275,123.892 451.275,117.892 445.275,111.892 439.275,111.892 439.275,111.892 321.282,111.892 321.282,111.892 315.282,111.892 309.282,117.892 309.282,123.892 309.282,123.892 309.282,189.892 309.282,189.892 309.282,195.892 315.282,201.892 321.282,201.892"/>
<text text-anchor="middle" x="380.278" y="127.092" font-family="Times,serif" font-size="14.00">PassthroughController</text>
<polyline fill="none" stroke="black" points="309.282,133.892 451.275,133.892 "/>
<text text-anchor="start" x="317.282" y="149.092" font-family="Times,serif" font-size="14.00">index</text>
<polyline fill="none" stroke="black" points="309.282,155.892 451.275,155.892 "/>
<polyline fill="none" stroke="black" points="309.282,179.892 451.275,179.892 "/>
<text text-anchor="start" x="317.282" y="195.092" font-family="Times,serif" font-size="14.00">_layout</text>
</g>
<!-- ApplicationController&#45;&gt;PassthroughController -->
<g id="edge7" class="edge"><title>ApplicationController&#45;&gt;PassthroughController</title>
<path fill="none" stroke="black" d="M16.3246,120.788C114.518,130.529 234.439,142.425 309.104,149.831"/>
</g>
<!-- Patients::MedicalTreatmentsController -->
<g id="node10" class="node"><title>Patients::MedicalTreatmentsController</title>
<path fill="none" stroke="black" d="M-485.656,549.707C-485.656,549.707 -275.644,549.707 -275.644,549.707 -269.644,549.707 -263.644,543.707 -263.644,537.707 -263.644,537.707 -263.644,345.707 -263.644,345.707 -263.644,339.707 -269.644,333.707 -275.644,333.707 -275.644,333.707 -485.656,333.707 -485.656,333.707 -491.656,333.707 -497.656,339.707 -497.656,345.707 -497.656,345.707 -497.656,537.707 -497.656,537.707 -497.656,543.707 -491.656,549.707 -485.656,549.707"/>
<text text-anchor="middle" x="-380.65" y="348.907" font-family="Times,serif" font-size="14.00">Patients::MedicalTreatmentsController</text>
<polyline fill="none" stroke="black" points="-497.656,355.707 -263.644,355.707 "/>
<text text-anchor="start" x="-489.656" y="370.907" font-family="Times,serif" font-size="14.00">create</text>
<text text-anchor="start" x="-489.656" y="384.907" font-family="Times,serif" font-size="14.00">destroy</text>
<text text-anchor="start" x="-489.656" y="398.907" font-family="Times,serif" font-size="14.00">edit</text>
<text text-anchor="start" x="-489.656" y="412.907" font-family="Times,serif" font-size="14.00">index</text>
<text text-anchor="start" x="-489.656" y="426.907" font-family="Times,serif" font-size="14.00">new</text>
<text text-anchor="start" x="-489.656" y="440.907" font-family="Times,serif" font-size="14.00">show</text>
<text text-anchor="start" x="-489.656" y="454.907" font-family="Times,serif" font-size="14.00">update</text>
<polyline fill="none" stroke="black" points="-497.656,461.707 -263.644,461.707 "/>
<polyline fill="none" stroke="black" points="-497.656,485.707 -263.644,485.707 "/>
<text text-anchor="start" x="-489.656" y="500.907" font-family="Times,serif" font-size="14.00">_layout</text>
<text text-anchor="start" x="-489.656" y="514.907" font-family="Times,serif" font-size="14.00">authorize_medical_treatment_access!</text>
<text text-anchor="start" x="-489.656" y="528.907" font-family="Times,serif" font-size="14.00">medical_treatment_params</text>
<text text-anchor="start" x="-489.656" y="542.907" font-family="Times,serif" font-size="14.00">set_medical_treatment</text>
</g>
<!-- ApplicationController&#45;&gt;Patients::MedicalTreatmentsController -->
<g id="edge8" class="edge"><title>ApplicationController&#45;&gt;Patients::MedicalTreatmentsController</title>
<path fill="none" stroke="black" d="M-193.184,170.758C-225.228,217.072 -268.751,279.977 -305.795,333.517"/>
</g>
<!-- PatientsController -->
<g id="node11" class="node"><title>PatientsController</title>
<path fill="none" stroke="black" d="M267.357,580.541C267.357,580.541 394.66,580.541 394.66,580.541 400.66,580.541 406.66,574.541 406.66,568.541 406.66,568.541 406.66,334.541 406.66,334.541 406.66,328.541 400.66,322.541 394.66,322.541 394.66,322.541 267.357,322.541 267.357,322.541 261.357,322.541 255.357,328.541 255.357,334.541 255.357,334.541 255.357,568.541 255.357,568.541 255.357,574.541 261.357,580.541 267.357,580.541"/>
<text text-anchor="middle" x="331.009" y="337.741" font-family="Times,serif" font-size="14.00">PatientsController</text>
<polyline fill="none" stroke="black" points="255.357,344.541 406.66,344.541 "/>
<text text-anchor="start" x="263.357" y="359.741" font-family="Times,serif" font-size="14.00">create</text>
<text text-anchor="start" x="263.357" y="373.741" font-family="Times,serif" font-size="14.00">destroy</text>
<text text-anchor="start" x="263.357" y="387.741" font-family="Times,serif" font-size="14.00">edit</text>
<text text-anchor="start" x="263.357" y="401.741" font-family="Times,serif" font-size="14.00">finder</text>
<text text-anchor="start" x="263.357" y="415.741" font-family="Times,serif" font-size="14.00">import</text>
<text text-anchor="start" x="263.357" y="429.741" font-family="Times,serif" font-size="14.00">index</text>
<text text-anchor="start" x="263.357" y="443.741" font-family="Times,serif" font-size="14.00">new</text>
<text text-anchor="start" x="263.357" y="457.741" font-family="Times,serif" font-size="14.00">new_import</text>
<text text-anchor="start" x="263.357" y="471.741" font-family="Times,serif" font-size="14.00">show</text>
<text text-anchor="start" x="263.357" y="485.741" font-family="Times,serif" font-size="14.00">update</text>
<polyline fill="none" stroke="black" points="255.357,492.541 406.66,492.541 "/>
<polyline fill="none" stroke="black" points="255.357,516.541 406.66,516.541 "/>
<text text-anchor="start" x="263.357" y="531.741" font-family="Times,serif" font-size="14.00">_layout</text>
<text text-anchor="start" x="263.357" y="545.741" font-family="Times,serif" font-size="14.00">import_patients_params</text>
<text text-anchor="start" x="263.357" y="559.741" font-family="Times,serif" font-size="14.00">patient_params</text>
<text text-anchor="start" x="263.357" y="573.741" font-family="Times,serif" font-size="14.00">set_patient</text>
</g>
<!-- ApplicationController&#45;&gt;PatientsController -->
<g id="edge9" class="edge"><title>ApplicationController&#45;&gt;PatientsController</title>
<path fill="none" stroke="black" d="M-113.004,170.742C-87.9849,213.631 -50.6552,268.137 -5.5351,304.836 72.5907,368.381 182.476,409.371 255.158,431.441"/>
</g>
<!-- PaymentBankChecksController -->
<g id="node12" class="node"><title>PaymentBankChecksController</title>
<path fill="none" stroke="black" d="M9.6649,301.636C9.6649,301.636 178.969,301.636 178.969,301.636 184.969,301.636 190.969,295.636 190.969,289.636 190.969,289.636 190.969,195.636 190.969,195.636 190.969,189.636 184.969,183.636 178.969,183.636 178.969,183.636 9.6649,183.636 9.6649,183.636 3.6649,183.636 -2.3351,189.636 -2.3351,195.636 -2.3351,195.636 -2.3351,289.636 -2.3351,289.636 -2.3351,295.636 3.6649,301.636 9.6649,301.636"/>
<text text-anchor="middle" x="94.3168" y="198.836" font-family="Times,serif" font-size="14.00">PaymentBankChecksController</text>
<polyline fill="none" stroke="black" points="-2.3351,205.636 190.969,205.636 "/>
<text text-anchor="start" x="5.6649" y="220.836" font-family="Times,serif" font-size="14.00">pending</text>
<polyline fill="none" stroke="black" points="-2.3351,227.636 190.969,227.636 "/>
<polyline fill="none" stroke="black" points="-2.3351,251.636 190.969,251.636 "/>
<text text-anchor="start" x="5.6649" y="266.836" font-family="Times,serif" font-size="14.00">_layout</text>
<text text-anchor="start" x="5.6649" y="280.836" font-family="Times,serif" font-size="14.00">payment_bank_check_params</text>
<text text-anchor="start" x="5.6649" y="294.836" font-family="Times,serif" font-size="14.00">set_payment_bank_check</text>
</g>
<!-- ApplicationController&#45;&gt;PaymentBankChecksController -->
<g id="edge10" class="edge"><title>ApplicationController&#45;&gt;PaymentBankChecksController</title>
<path fill="none" stroke="black" d="M-31.8383,170.559C-22.0076,176.176 -12.13,181.819 -2.46626,187.341"/>
</g>
<!-- PaymentsController -->
<g id="node13" class="node"><title>PaymentsController</title>
<path fill="none" stroke="black" d="M-469.416,-16.1502C-469.416,-16.1502 -365.429,-16.1502 -365.429,-16.1502 -359.429,-16.1502 -353.429,-22.1502 -353.429,-28.1502 -353.429,-28.1502 -353.429,-220.15 -353.429,-220.15 -353.429,-226.15 -359.429,-232.15 -365.429,-232.15 -365.429,-232.15 -469.416,-232.15 -469.416,-232.15 -475.416,-232.15 -481.416,-226.15 -481.416,-220.15 -481.416,-220.15 -481.416,-28.1502 -481.416,-28.1502 -481.416,-22.1502 -475.416,-16.1502 -469.416,-16.1502"/>
<text text-anchor="middle" x="-417.422" y="-216.95" font-family="Times,serif" font-size="14.00">PaymentsController</text>
<polyline fill="none" stroke="black" points="-481.416,-210.15 -353.429,-210.15 "/>
<text text-anchor="start" x="-473.416" y="-194.95" font-family="Times,serif" font-size="14.00">create</text>
<text text-anchor="start" x="-473.416" y="-180.95" font-family="Times,serif" font-size="14.00">destroy</text>
<text text-anchor="start" x="-473.416" y="-166.95" font-family="Times,serif" font-size="14.00">edit</text>
<text text-anchor="start" x="-473.416" y="-152.95" font-family="Times,serif" font-size="14.00">index</text>
<text text-anchor="start" x="-473.416" y="-138.95" font-family="Times,serif" font-size="14.00">listing</text>
<text text-anchor="start" x="-473.416" y="-124.95" font-family="Times,serif" font-size="14.00">new</text>
<text text-anchor="start" x="-473.416" y="-110.95" font-family="Times,serif" font-size="14.00">show</text>
<text text-anchor="start" x="-473.416" y="-96.9502" font-family="Times,serif" font-size="14.00">update</text>
<polyline fill="none" stroke="black" points="-481.416,-90.1502 -353.429,-90.1502 "/>
<polyline fill="none" stroke="black" points="-481.416,-66.1502 -353.429,-66.1502 "/>
<text text-anchor="start" x="-473.416" y="-50.9502" font-family="Times,serif" font-size="14.00">_layout</text>
<text text-anchor="start" x="-473.416" y="-36.9502" font-family="Times,serif" font-size="14.00">payment_params</text>
<text text-anchor="start" x="-473.416" y="-22.9502" font-family="Times,serif" font-size="14.00">set_payment</text>
</g>
<!-- ApplicationController&#45;&gt;PaymentsController -->
<g id="edge11" class="edge"><title>ApplicationController&#45;&gt;PaymentsController</title>
<path fill="none" stroke="black" d="M-225.484,38.3997C-265.985,4.10026 -314.848,-37.2811 -353.136,-69.7069"/>
</g>
<!-- PosturalAnalysesController -->
<g id="node14" class="node"><title>PosturalAnalysesController</title>
<path fill="none" stroke="black" d="M301.364,-59.2262C301.364,-59.2262 468.323,-59.2262 468.323,-59.2262 474.323,-59.2262 480.323,-65.2262 480.323,-71.2262 480.323,-71.2262 480.323,-207.226 480.323,-207.226 480.323,-213.226 474.323,-219.226 468.323,-219.226 468.323,-219.226 301.364,-219.226 301.364,-219.226 295.364,-219.226 289.364,-213.226 289.364,-207.226 289.364,-207.226 289.364,-71.2262 289.364,-71.2262 289.364,-65.2262 295.364,-59.2262 301.364,-59.2262"/>
<text text-anchor="middle" x="384.843" y="-204.026" font-family="Times,serif" font-size="14.00">PosturalAnalysesController</text>
<polyline fill="none" stroke="black" points="289.364,-197.226 480.323,-197.226 "/>
<text text-anchor="start" x="297.364" y="-182.026" font-family="Times,serif" font-size="14.00">create</text>
<text text-anchor="start" x="297.364" y="-168.026" font-family="Times,serif" font-size="14.00">edit</text>
<text text-anchor="start" x="297.364" y="-154.026" font-family="Times,serif" font-size="14.00">new</text>
<text text-anchor="start" x="297.364" y="-140.026" font-family="Times,serif" font-size="14.00">update</text>
<polyline fill="none" stroke="black" points="289.364,-133.226 480.323,-133.226 "/>
<polyline fill="none" stroke="black" points="289.364,-109.226 480.323,-109.226 "/>
<text text-anchor="start" x="297.364" y="-94.0262" font-family="Times,serif" font-size="14.00">_layout</text>
<text text-anchor="start" x="297.364" y="-80.0262" font-family="Times,serif" font-size="14.00">edit_postural_analysis_params</text>
<text text-anchor="start" x="297.364" y="-66.0262" font-family="Times,serif" font-size="14.00">new_postural_analysis_params</text>
</g>
<!-- ApplicationController&#45;&gt;PosturalAnalysesController -->
<g id="edge12" class="edge"><title>ApplicationController&#45;&gt;PosturalAnalysesController</title>
<path fill="none" stroke="black" d="M-109.176,38.4436C-77.2808,-9.94344 -27.0555,-72.334 35.2041,-103.253 77.813,-124.414 201.452,-113.374 248.733,-118.645 261.796,-120.101 275.529,-121.882 289.041,-123.78"/>
</g>
<!-- PosturalAnalysisScansController -->
<g id="node15" class="node"><title>PosturalAnalysisScansController</title>
<path fill="none" stroke="black" d="M254.257,-387.431C254.257,-387.431 431.354,-387.431 431.354,-387.431 437.354,-387.431 443.354,-393.431 443.354,-399.431 443.354,-399.431 443.354,-493.431 443.354,-493.431 443.354,-499.431 437.354,-505.431 431.354,-505.431 431.354,-505.431 254.257,-505.431 254.257,-505.431 248.257,-505.431 242.257,-499.431 242.257,-493.431 242.257,-493.431 242.257,-399.431 242.257,-399.431 242.257,-393.431 248.257,-387.431 254.257,-387.431"/>
<text text-anchor="middle" x="342.806" y="-490.231" font-family="Times,serif" font-size="14.00">PosturalAnalysisScansController</text>
<polyline fill="none" stroke="black" points="242.257,-483.431 443.354,-483.431 "/>
<text text-anchor="start" x="250.257" y="-468.231" font-family="Times,serif" font-size="14.00">create</text>
<text text-anchor="start" x="250.257" y="-454.231" font-family="Times,serif" font-size="14.00">new</text>
<polyline fill="none" stroke="black" points="242.257,-447.431 443.354,-447.431 "/>
<polyline fill="none" stroke="black" points="242.257,-423.431 443.354,-423.431 "/>
<text text-anchor="start" x="250.257" y="-408.231" font-family="Times,serif" font-size="14.00">_layout</text>
<text text-anchor="start" x="250.257" y="-394.231" font-family="Times,serif" font-size="14.00">postural_analysis_scan_params</text>
</g>
<!-- ApplicationController&#45;&gt;PosturalAnalysisScansController -->
<g id="edge13" class="edge"><title>ApplicationController&#45;&gt;PosturalAnalysisScansController</title>
<path fill="none" stroke="black" d="M-109.176,38.4436C-77.2808,-9.94344 -27.0555,-72.334 35.2041,-103.253 77.813,-124.414 211.79,-88.6704 248.733,-118.645 259.379,-127.283 303.878,-295.063 327.661,-387.141"/>
</g>
<!-- PractitionersController -->
<g id="node16" class="node"><title>PractitionersController</title>
<path fill="none" stroke="black" d="M-111.814,-360.746C-111.814,-360.746 55.8966,-360.746 55.8966,-360.746 61.8966,-360.746 67.8966,-366.746 67.8966,-372.746 67.8966,-372.746 67.8966,-562.746 67.8966,-562.746 67.8966,-568.746 61.8966,-574.746 55.8966,-574.746 55.8966,-574.746 -111.814,-574.746 -111.814,-574.746 -117.814,-574.746 -123.814,-568.746 -123.814,-562.746 -123.814,-562.746 -123.814,-372.746 -123.814,-372.746 -123.814,-366.746 -117.814,-360.746 -111.814,-360.746"/>
<text text-anchor="middle" x="-27.9589" y="-559.546" font-family="Times,serif" font-size="14.00">PractitionersController</text>
<polyline fill="none" stroke="black" points="-123.814,-552.746 67.8966,-552.746 "/>
<text text-anchor="start" x="-115.814" y="-537.546" font-family="Times,serif" font-size="14.00">create</text>
<text text-anchor="start" x="-115.814" y="-523.546" font-family="Times,serif" font-size="14.00">destroy</text>
<text text-anchor="start" x="-115.814" y="-509.546" font-family="Times,serif" font-size="14.00">edit</text>
<text text-anchor="start" x="-115.814" y="-495.546" font-family="Times,serif" font-size="14.00">finder</text>
<text text-anchor="start" x="-115.814" y="-481.546" font-family="Times,serif" font-size="14.00">index</text>
<text text-anchor="start" x="-115.814" y="-467.546" font-family="Times,serif" font-size="14.00">new</text>
<text text-anchor="start" x="-115.814" y="-453.546" font-family="Times,serif" font-size="14.00">show</text>
<text text-anchor="start" x="-115.814" y="-439.546" font-family="Times,serif" font-size="14.00">update</text>
<polyline fill="none" stroke="black" points="-123.814,-432.746 67.8966,-432.746 "/>
<text text-anchor="start" x="-115.814" y="-417.546" font-family="Times,serif" font-size="14.00">authorize_modify_practitioner!</text>
<text text-anchor="start" x="-115.814" y="-403.546" font-family="Times,serif" font-size="14.00">practitioner_params</text>
<text text-anchor="start" x="-115.814" y="-389.546" font-family="Times,serif" font-size="14.00">set_practitioner</text>
<polyline fill="none" stroke="black" points="-123.814,-382.746 67.8966,-382.746 "/>
<text text-anchor="start" x="-115.814" y="-367.546" font-family="Times,serif" font-size="14.00">_layout</text>
</g>
<!-- ApplicationController&#45;&gt;PractitionersController -->
<g id="edge14" class="edge"><title>ApplicationController&#45;&gt;PractitionersController</title>
<path fill="none" stroke="black" d="M-95.9403,38.514C-72.9878,5.02199 -48.3898,-37.4647 -36.114,-79.8407 -21.4479,-130.468 -21.6657,-264.164 -24.0505,-360.444"/>
</g>
</g>
</svg>
