<?xml version="1.0" encoding="UTF-8" standalone="no"?>
<!DOCTYPE svg PUBLIC "-//W3C//DTD SVG 1.1//EN"
 "http://www.w3.org/Graphics/SVG/1.1/DTD/svg11.dtd">
<!-- Generated by graphviz version 2.38.0 (20140413.2041)
 -->
<!-- Title: models_diagram Pages: 1 -->
<svg width="1056pt" height="585pt"
 viewBox="0.00 0.00 1056.20 585.00" xmlns="http://www.w3.org/2000/svg" xmlns:xlink="http://www.w3.org/1999/xlink">
<g id="graph0" class="graph" transform="scale(1 1) rotate(0) translate(4 581)">
<title>models_diagram</title>
<polygon fill="white" stroke="none" points="-4,4 -4,-581 1052.2,-581 1052.2,4 -4,4"/>
<!-- _diagram_info -->
<g id="node1" class="node"><title>_diagram_info</title>
<text text-anchor="start" x="125.55" y="-562.6" font-family="Times,serif" font-size="13.00">Models diagram</text>
<text text-anchor="start" x="125.55" y="-549.6" font-family="Times,serif" font-size="13.00">Date: Jul 28 2014 &#45; 14:06</text>
<text text-anchor="start" x="125.55" y="-536.6" font-family="Times,serif" font-size="13.00">Migration version: 20140707114710</text>
<text text-anchor="start" x="125.55" y="-523.6" font-family="Times,serif" font-size="13.00">Generated by RailRoady 1.1.1</text>
<text text-anchor="start" x="125.55" y="-510.6" font-family="Times,serif" font-size="13.00">http://railroady.prestonlee.com</text>
</g>
<!-- BankAccount -->
<g id="node2" class="node"><title>BankAccount</title>
<ellipse fill="none" stroke="black" cx="829" cy="-306" rx="58.9668" ry="18"/>
<text text-anchor="middle" x="829" y="-301.8" font-family="Times,serif" font-size="14.00">BankAccount</text>
</g>
<!-- BankDeposit -->
<g id="node3" class="node"><title>BankDeposit</title>
<ellipse fill="none" stroke="black" cx="826" cy="-234" rx="56.07" ry="18"/>
<text text-anchor="middle" x="826" y="-229.8" font-family="Times,serif" font-size="14.00">BankDeposit</text>
</g>
<!-- BankAccount&#45;&gt;BankDeposit -->
<g id="edge1" class="edge"><title>BankAccount&#45;&gt;BankDeposit</title>
<path fill="none" stroke="#743695" d="M827.913,-279.64C827.674,-274.063 827.42,-268.132 827.178,-262.476"/>
<ellipse fill="none" stroke="#743695" cx="828.087" cy="-283.7" rx="4" ry="4"/>
<polygon fill="#743695" stroke="#743695" points="827.161,-262.095 831.229,-251.912 826.947,-257.1 826.733,-252.104 826.733,-252.104 826.733,-252.104 826.947,-257.1 822.237,-252.297 827.161,-262.095 827.161,-262.095"/>
</g>
<!-- Payment -->
<g id="node10" class="node"><title>Payment</title>
<ellipse fill="none" stroke="black" cx="551" cy="-90" rx="41.1093" ry="18"/>
<text text-anchor="middle" x="551" y="-85.8" font-family="Times,serif" font-size="14.00">Payment</text>
</g>
<!-- BankDeposit&#45;&gt;Payment -->
<g id="edge3" class="edge"><title>BankDeposit&#45;&gt;Payment</title>
<path fill="none" stroke="#06a526" d="M790.357,-214.595C737.323,-187.211 638.269,-136.062 585.755,-108.946"/>
<ellipse fill="none" stroke="#06a526" cx="794.052" cy="-216.503" rx="4.00002" ry="4.00002"/>
<polygon fill="#06a526" stroke="#06a526" points="585.705,-108.92 578.884,-100.334 581.262,-106.626 576.819,-104.332 576.819,-104.332 576.819,-104.332 581.262,-106.626 574.755,-108.33 585.705,-108.92 585.705,-108.92"/>
</g>
<!-- PaymentBankCheck -->
<g id="node11" class="node"><title>PaymentBankCheck</title>
<ellipse fill="none" stroke="black" cx="468" cy="-18" rx="82.1286" ry="18"/>
<text text-anchor="middle" x="468" y="-13.8" font-family="Times,serif" font-size="14.00">PaymentBankCheck</text>
</g>
<!-- BankDeposit&#45;&gt;PaymentBankCheck -->
<g id="edge4" class="edge"><title>BankDeposit&#45;&gt;PaymentBankCheck</title>
<path fill="none" stroke="#7d5918" d="M800.318,-211.413C759.913,-178.215 678.136,-114.066 601,-72 575.667,-58.1847 545.959,-46.0003 521.055,-36.8086"/>
<ellipse fill="none" stroke="#7d5918" cx="803.822" cy="-214.307" rx="4.00002" ry="4.00002"/>
<polygon fill="#7d5918" stroke="#7d5918" points="520.812,-36.7207 512.947,-29.0794 516.112,-35.0151 511.412,-33.3095 511.412,-33.3095 511.412,-33.3095 516.112,-35.0151 509.877,-37.5397 520.812,-36.7207 520.812,-36.7207"/>
</g>
<!-- Country -->
<g id="node4" class="node"><title>Country</title>
<ellipse fill="none" stroke="black" cx="167" cy="-378" rx="39.1887" ry="18"/>
<text text-anchor="middle" x="167" y="-373.8" font-family="Times,serif" font-size="14.00">Country</text>
</g>
<!-- Patient -->
<g id="node9" class="node"><title>Patient</title>
<ellipse fill="none" stroke="black" cx="272" cy="-234" rx="34.8371" ry="18"/>
<text text-anchor="middle" x="272" y="-229.8" font-family="Times,serif" font-size="14.00">Patient</text>
</g>
<!-- Country&#45;&gt;Patient -->
<g id="edge6" class="edge"><title>Country&#45;&gt;Patient</title>
<path fill="none" stroke="#cbeee5" d="M147.245,-354.563C133.114,-335.662 118.876,-308.502 133,-288 154.154,-257.294 195.658,-244.365 227.83,-238.929"/>
<ellipse fill="none" stroke="#cbeee5" cx="149.925" cy="-357.978" rx="4.00002" ry="4.00002"/>
<polygon fill="#cbeee5" stroke="#cbeee5" points="228.021,-238.9 238.579,-241.864 232.965,-238.157 237.91,-237.414 237.91,-237.414 237.91,-237.414 232.965,-238.157 237.241,-232.964 228.021,-238.9 228.021,-238.9"/>
</g>
<!-- Practitioner -->
<g id="node14" class="node"><title>Practitioner</title>
<ellipse fill="none" stroke="black" cx="193" cy="-306" rx="51.2242" ry="18"/>
<text text-anchor="middle" x="193" y="-301.8" font-family="Times,serif" font-size="14.00">Practitioner</text>
</g>
<!-- Country&#45;&gt;Practitioner -->
<g id="edge7" class="edge"><title>Country&#45;&gt;Practitioner</title>
<path fill="none" stroke="#d3a093" d="M176.082,-352.548C178.301,-346.574 180.688,-340.148 182.949,-334.061"/>
<ellipse fill="none" stroke="#d3a093" cx="174.687" cy="-356.305" rx="4.00001" ry="4.00001"/>
<polygon fill="#d3a093" stroke="#d3a093" points="183.102,-333.65 190.802,-325.842 184.842,-328.962 186.583,-324.275 186.583,-324.275 186.583,-324.275 184.842,-328.962 182.365,-322.708 183.102,-333.65 183.102,-333.65"/>
</g>
<!-- MedicalTreatment -->
<g id="node5" class="node"><title>MedicalTreatment</title>
<ellipse fill="none" stroke="black" cx="551" cy="-162" rx="75.2231" ry="18"/>
<text text-anchor="middle" x="551" y="-157.8" font-family="Times,serif" font-size="14.00">MedicalTreatment</text>
</g>
<!-- MedicalTreatment&#45;&gt;Payment -->
<g id="edge9" class="edge"><title>MedicalTreatment&#45;&gt;Payment</title>
<path fill="none" stroke="#970368" d="M551,-135.64C551,-130.063 551,-124.132 551,-118.476"/>
<ellipse fill="none" stroke="#970368" cx="551" cy="-139.697" rx="4" ry="4"/>
<polygon fill="#970368" stroke="#970368" points="551,-118.104 555.5,-108.104 551,-113.104 551,-108.104 551,-108.104 551,-108.104 551,-113.104 546.5,-108.104 551,-118.104 551,-118.104"/>
</g>
<!-- MedicalTreatmentType -->
<g id="node6" class="node"><title>MedicalTreatmentType</title>
<ellipse fill="none" stroke="black" cx="621" cy="-306" rx="92.8294" ry="18"/>
<text text-anchor="middle" x="621" y="-301.8" font-family="Times,serif" font-size="14.00">MedicalTreatmentType</text>
</g>
<!-- MedicalTreatmentType&#45;&gt;MedicalTreatment -->
<g id="edge11" class="edge"><title>MedicalTreatmentType&#45;&gt;MedicalTreatment</title>
<path fill="none" stroke="#9dad18" d="M609.003,-280.663C596.494,-255.288 576.95,-215.641 564.06,-189.492"/>
<ellipse fill="none" stroke="#9dad18" cx="610.788" cy="-284.284" rx="4.00002" ry="4.00002"/>
<polygon fill="#9dad18" stroke="#9dad18" points="563.895,-189.159 563.51,-178.2 561.684,-184.674 559.474,-180.189 559.474,-180.189 559.474,-180.189 561.684,-184.674 555.437,-182.179 563.895,-189.159 563.895,-189.159"/>
</g>
<!-- Model -->
<g id="node7" class="node"><title>Model</title>
<ellipse fill="none" stroke="black" cx="1015" cy="-450" rx="33.3925" ry="18"/>
<text text-anchor="middle" x="1015" y="-445.8" font-family="Times,serif" font-size="14.00">Model</text>
</g>
<!-- Office -->
<g id="node8" class="node"><title>Office</title>
<ellipse fill="none" stroke="black" cx="454" cy="-450" rx="32.415" ry="18"/>
<text text-anchor="middle" x="454" y="-445.8" font-family="Times,serif" font-size="14.00">Office</text>
</g>
<!-- User -->
<g id="node15" class="node"><title>User</title>
<ellipse fill="none" stroke="black" cx="424" cy="-378" rx="27" ry="18"/>
<text text-anchor="middle" x="424" y="-373.8" font-family="Times,serif" font-size="14.00">User</text>
</g>
<!-- Office&#45;&gt;User -->
<g id="edge14" class="edge"><title>Office&#45;&gt;User</title>
<path fill="none" stroke="#4feb66" d="M443.693,-424.95C440.894,-418.418 437.852,-411.322 435.016,-404.703"/>
<ellipse fill="none" stroke="#4feb66" cx="445.315" cy="-428.734" rx="4.00002" ry="4.00002"/>
<polygon fill="#4feb66" stroke="#4feb66" points="434.998,-404.661 435.195,-393.697 433.028,-400.066 431.059,-395.47 431.059,-395.47 431.059,-395.47 433.028,-400.066 426.922,-397.243 434.998,-404.661 434.998,-404.661"/>
</g>
<!-- Patient&#45;&gt;MedicalTreatment -->
<g id="edge16" class="edge"><title>Patient&#45;&gt;MedicalTreatment</title>
<path fill="none" stroke="#d760a6" d="M310.589,-223.318C357.295,-211.6 436.464,-191.737 491.119,-178.024"/>
<ellipse fill="none" stroke="#d760a6" cx="306.536" cy="-224.335" rx="4.00001" ry="4.00001"/>
<polygon fill="#d760a6" stroke="#d760a6" points="491.327,-177.972 502.121,-179.903 496.176,-176.755 501.026,-175.538 501.026,-175.538 501.026,-175.538 496.176,-176.755 499.931,-171.174 491.327,-177.972 491.327,-177.972"/>
</g>
<!-- PosturalAnalysis -->
<g id="node12" class="node"><title>PosturalAnalysis</title>
<ellipse fill="none" stroke="black" cx="272" cy="-162" rx="70.0927" ry="18"/>
<text text-anchor="middle" x="272" y="-157.8" font-family="Times,serif" font-size="14.00">PosturalAnalysis</text>
</g>
<!-- Patient&#45;&gt;PosturalAnalysis -->
<g id="edge17" class="edge"><title>Patient&#45;&gt;PosturalAnalysis</title>
<path fill="none" stroke="#0c7a02" d="M272,-207.64C272,-202.063 272,-196.132 272,-190.476"/>
<ellipse fill="none" stroke="#0c7a02" cx="272" cy="-211.697" rx="4" ry="4"/>
<polygon fill="#0c7a02" stroke="#0c7a02" points="272,-190.104 276.5,-180.104 272,-185.104 272,-180.104 272,-180.104 272,-180.104 272,-185.104 267.5,-180.104 272,-190.104 272,-190.104"/>
</g>
<!-- Payment&#45;&gt;PaymentBankCheck -->
<g id="edge19" class="edge"><title>Payment&#45;&gt;PaymentBankCheck</title>
<path fill="none" stroke="#a50ed6" d="M526.756,-68.5534C516.474,-59.8815 504.472,-49.7594 494.005,-40.9322"/>
<ellipse fill="none" stroke="#a50ed6" cx="529.932" cy="-71.2322" rx="4.00002" ry="4.00002"/>
<ellipse fill="#a50ed6" stroke="#a50ed6" cx="490.774" cy="-38.2067" rx="4.00002" ry="4.00002"/>
</g>
<!-- PosturalAnalysisScan -->
<g id="node13" class="node"><title>PosturalAnalysisScan</title>
<ellipse fill="none" stroke="black" cx="193" cy="-90" rx="87.474" ry="18"/>
<text text-anchor="middle" x="193" y="-85.8" font-family="Times,serif" font-size="14.00">PosturalAnalysisScan</text>
</g>
<!-- PosturalAnalysis&#45;&gt;PosturalAnalysisScan -->
<g id="edge22" class="edge"><title>PosturalAnalysis&#45;&gt;PosturalAnalysisScan</title>
<path fill="none" stroke="#62900d" d="M247.163,-138.993C238.336,-131.171 228.37,-122.341 219.416,-114.406"/>
<ellipse fill="none" stroke="#62900d" cx="250.284" cy="-141.758" rx="4.00002" ry="4.00002"/>
<polygon fill="#62900d" stroke="#62900d" points="219.346,-114.344 214.846,-104.344 215.604,-111.028 211.861,-107.713 211.861,-107.713 211.861,-107.713 215.604,-111.028 208.877,-111.081 219.346,-114.344 219.346,-114.344"/>
</g>
<!-- Practitioner&#45;&gt;Patient -->
<g id="edge25" class="edge"><title>Practitioner&#45;&gt;Patient</title>
<path fill="none" stroke="#8a4150" d="M217.125,-283.623C226.755,-275.09 237.83,-265.277 247.498,-256.711"/>
<ellipse fill="none" stroke="#8a4150" cx="213.92" cy="-286.463" rx="4.00002" ry="4.00002"/>
<polygon fill="#8a4150" stroke="#8a4150" points="247.74,-256.496 258.209,-253.232 251.483,-253.18 255.225,-249.864 255.225,-249.864 255.225,-249.864 251.483,-253.18 252.241,-246.496 247.74,-256.496 247.74,-256.496"/>
</g>
<!-- User&#45;&gt;BankAccount -->
<g id="edge34" class="edge"><title>User&#45;&gt;BankAccount</title>
<path fill="none" stroke="#df1f2c" d="M458.207,-371.088C527.113,-359.178 683.37,-332.171 769.414,-317.299"/>
<ellipse fill="none" stroke="#df1f2c" cx="453.892" cy="-371.833" rx="4.00001" ry="4.00001"/>
<polygon fill="#df1f2c" stroke="#df1f2c" points="769.44,-317.294 780.06,-320.025 774.367,-316.443 779.294,-315.591 779.294,-315.591 779.294,-315.591 774.367,-316.443 778.527,-311.157 769.44,-317.294 769.44,-317.294"/>
</g>
<!-- User&#45;&gt;BankDeposit -->
<g id="edge33" class="edge"><title>User&#45;&gt;BankDeposit</title>
<path fill="none" stroke="#797818" d="M444.268,-356.824C469.452,-331.944 510.197,-292.382 519,-288 595.755,-249.792 695.167,-238.581 759.746,-235.582"/>
<ellipse fill="none" stroke="#797818" cx="441.378" cy="-359.685" rx="4.00002" ry="4.00002"/>
<polygon fill="#797818" stroke="#797818" points="759.812,-235.579 769.988,-239.665 764.807,-235.374 769.803,-235.168 769.803,-235.168 769.803,-235.168 764.807,-235.374 769.618,-230.672 759.812,-235.579 759.812,-235.579"/>
</g>
<!-- User&#45;&gt;MedicalTreatment -->
<g id="edge29" class="edge"><title>User&#45;&gt;MedicalTreatment</title>
<path fill="none" stroke="#8e57db" d="M437.53,-353.673C447.982,-335.695 462.836,-310.232 476,-288 496.441,-253.477 520.327,-213.776 535.552,-188.549"/>
<ellipse fill="none" stroke="#8e57db" cx="435.347" cy="-357.43" rx="4.00002" ry="4.00002"/>
<polygon fill="#8e57db" stroke="#8e57db" points="535.578,-188.506 544.599,-182.272 538.163,-184.226 540.747,-179.946 540.747,-179.946 540.747,-179.946 538.163,-184.226 536.895,-177.62 535.578,-188.506 535.578,-188.506"/>
</g>
<!-- User&#45;&gt;MedicalTreatmentType -->
<g id="edge30" class="edge"><title>User&#45;&gt;MedicalTreatmentType</title>
<path fill="none" stroke="#1db41f" d="M454.986,-365.99C485.581,-355.119 532.924,-338.296 569.237,-325.393"/>
<ellipse fill="none" stroke="#1db41f" cx="451.141" cy="-367.356" rx="4.00001" ry="4.00001"/>
<polygon fill="#1db41f" stroke="#1db41f" points="569.265,-325.383 580.194,-326.275 573.976,-323.709 578.688,-322.035 578.688,-322.035 578.688,-322.035 573.976,-323.709 577.181,-317.795 569.265,-325.383 569.265,-325.383"/>
</g>
<!-- User&#45;&gt;Patient -->
<g id="edge27" class="edge"><title>User&#45;&gt;Patient</title>
<path fill="none" stroke="#ec3947" d="M394.254,-363.587C375.603,-354.236 351.807,-340.499 334,-324 314.057,-305.522 296.889,-279.579 285.709,-260.468"/>
<ellipse fill="none" stroke="#ec3947" cx="398.305" cy="-365.566" rx="4.00002" ry="4.00002"/>
<polygon fill="#ec3947" stroke="#ec3947" points="285.663,-260.388 284.626,-249.471 283.189,-256.043 280.715,-251.698 280.715,-251.698 280.715,-251.698 283.189,-256.043 276.805,-253.924 285.663,-260.388 285.663,-260.388"/>
</g>
<!-- User&#45;&gt;Payment -->
<g id="edge31" class="edge"><title>User&#45;&gt;Payment</title>
<path fill="none" stroke="#4a1164" d="M422.369,-351.602C420.713,-305.959 423.124,-208.797 467,-144 477.911,-127.887 495.525,-115.681 511.813,-107.068"/>
<ellipse fill="none" stroke="#4a1164" cx="422.553" cy="-355.766" rx="4" ry="4"/>
<polygon fill="#4a1164" stroke="#4a1164" points="512.234,-106.859 523.192,-106.44 516.712,-104.634 521.19,-102.41 521.19,-102.41 521.19,-102.41 516.712,-104.634 519.187,-98.3796 512.234,-106.859 512.234,-106.859"/>
</g>
<!-- User&#45;&gt;PaymentBankCheck -->
<g id="edge32" class="edge"><title>User&#45;&gt;PaymentBankCheck</title>
<path fill="none" stroke="#374278" d="M413.326,-352.677C402.086,-324.811 386,-277.506 386,-235 386,-235 386,-235 386,-161 386,-114.621 419.21,-69.7623 443.361,-43.2729"/>
<ellipse fill="none" stroke="#374278" cx="414.964" cy="-356.641" rx="4.00001" ry="4.00001"/>
<polygon fill="#374278" stroke="#374278" points="443.362,-43.2716 453.488,-39.0619 446.785,-39.6266 450.207,-35.9816 450.207,-35.9816 450.207,-35.9816 446.785,-39.6266 446.927,-32.9012 443.362,-43.2716 443.362,-43.2716"/>
</g>
<!-- User&#45;&gt;PosturalAnalysis -->
<g id="edge35" class="edge"><title>User&#45;&gt;PosturalAnalysis</title>
<path fill="none" stroke="#a42b39" d="M402.211,-357.632C392.262,-348.112 380.77,-336.101 372,-324 340.272,-280.219 345.885,-261.06 316,-216 309.588,-206.333 301.719,-196.382 294.416,-187.751"/>
<ellipse fill="none" stroke="#a42b39" cx="405.25" cy="-360.481" rx="4.00002" ry="4.00002"/>
<polygon fill="#a42b39" stroke="#a42b39" points="294.196,-187.496 291.058,-176.989 290.925,-183.714 287.654,-179.932 287.654,-179.932 287.654,-179.932 290.925,-183.714 284.251,-182.876 294.196,-187.496 294.196,-187.496"/>
</g>
<!-- User&#45;&gt;Practitioner -->
<g id="edge28" class="edge"><title>User&#45;&gt;Practitioner</title>
<path fill="none" stroke="#9c9585" d="M391.962,-367.292C352.604,-355.365 285.499,-335.03 240.226,-321.311"/>
<ellipse fill="none" stroke="#9c9585" cx="395.887" cy="-368.481" rx="4.00001" ry="4.00001"/>
<polygon fill="#9c9585" stroke="#9c9585" points="240.203,-321.304 231.937,-314.097 235.417,-319.854 230.632,-318.404 230.632,-318.404 230.632,-318.404 235.417,-319.854 229.327,-322.71 240.203,-321.304 240.203,-321.304"/>
</g>
<!-- ActiveRecord::Base -->
<g id="node16" class="node"><title>ActiveRecord::Base</title>
<ellipse fill="none" stroke="black" cx="424" cy="-540.5" rx="81.1422" ry="18"/>
<text text-anchor="middle" x="424" y="-536.3" font-family="Times,serif" font-size="14.00">ActiveRecord::Base</text>
</g>
<!-- ActiveRecord::Base&#45;&gt;BankAccount -->
<g id="edge2" class="edge"><title>ActiveRecord::Base&#45;&gt;BankAccount</title>
<path fill="none" stroke="black" d="M495.4,-531.692C580.623,-521.102 716.586,-499.783 756,-468 802.348,-430.626 820.372,-357.438 826.384,-324.18"/>
</g>
<!-- ActiveRecord::Base&#45;&gt;BankDeposit -->
<g id="edge5" class="edge"><title>ActiveRecord::Base&#45;&gt;BankDeposit</title>
<path fill="none" stroke="black" d="M505.166,-539.351C582.447,-535.713 699.351,-520.824 785,-468 854.01,-425.439 870.687,-400.691 897,-324 902.193,-308.866 904.172,-302.303 897,-288 888.52,-271.087 871.798,-258.191 856.712,-249.357"/>
</g>
<!-- ActiveRecord::Base&#45;&gt;Country -->
<g id="edge8" class="edge"><title>ActiveRecord::Base&#45;&gt;Country</title>
<path fill="none" stroke="black" d="M387.009,-524.455C370.561,-517.924 350.905,-510.337 333,-504 283.311,-486.413 261.28,-500.775 220,-468 196.057,-448.99 180.541,-415.98 172.819,-395.948"/>
</g>
<!-- ActiveRecord::Base&#45;&gt;MedicalTreatment -->
<g id="edge10" class="edge"><title>ActiveRecord::Base&#45;&gt;MedicalTreatment</title>
<path fill="none" stroke="black" d="M499.765,-533.918C593.823,-522.386 742,-487.068 742,-379 742,-379 742,-379 742,-305 742,-233.93 655.78,-194.259 599.197,-175.877"/>
</g>
<!-- ActiveRecord::Base&#45;&gt;MedicalTreatmentType -->
<g id="edge12" class="edge"><title>ActiveRecord::Base&#45;&gt;MedicalTreatmentType</title>
<path fill="none" stroke="black" d="M441.804,-522.712C456.532,-508.56 477.755,-487.545 495,-468 539.383,-417.698 586.909,-353.916 608.746,-323.975"/>
</g>
<!-- ActiveRecord::Base&#45;&gt;Model -->
<g id="edge13" class="edge"><title>ActiveRecord::Base&#45;&gt;Model</title>
<path fill="none" stroke="black" d="M501.092,-534.639C607.396,-526.748 804.414,-507.837 968,-468 974.913,-466.316 982.22,-463.967 988.959,-461.552"/>
</g>
<!-- ActiveRecord::Base&#45;&gt;Office -->
<g id="edge15" class="edge"><title>ActiveRecord::Base&#45;&gt;Office</title>
<path fill="none" stroke="black" d="M429.784,-522.436C435.097,-506.765 442.927,-483.666 448.233,-468.011"/>
</g>
<!-- ActiveRecord::Base&#45;&gt;Patient -->
<g id="edge18" class="edge"><title>ActiveRecord::Base&#45;&gt;Patient</title>
<path fill="none" stroke="black" d="M412.876,-522.488C389.897,-486.823 336.458,-401.134 302,-324 291.159,-299.733 281.961,-270.287 276.709,-252.095"/>
</g>
<!-- ActiveRecord::Base&#45;&gt;Payment -->
<g id="edge20" class="edge"><title>ActiveRecord::Base&#45;&gt;Payment</title>
<path fill="none" stroke="black" d="M497.416,-532.739C642.927,-517.303 954,-473.278 954,-379 954,-379 954,-379 954,-233 954,-156.222 690.509,-110.765 589.641,-96.177"/>
</g>
<!-- ActiveRecord::Base&#45;&gt;PaymentBankCheck -->
<g id="edge21" class="edge"><title>ActiveRecord::Base&#45;&gt;PaymentBankCheck</title>
<path fill="none" stroke="black" d="M390.089,-523.959C373.247,-516.841 352.398,-508.915 333,-504 179.759,-465.172 0,-537.084 0,-379 0,-379 0,-379 0,-161 0,-102.492 44.1184,-97.035 97,-72 147.647,-48.0228 298.101,-32.3171 391.122,-24.6072"/>
</g>
<!-- ActiveRecord::Base&#45;&gt;PosturalAnalysis -->
<g id="edge23" class="edge"><title>ActiveRecord::Base&#45;&gt;PosturalAnalysis</title>
<path fill="none" stroke="black" d="M388.072,-524.253C371.485,-517.534 351.425,-509.854 333,-504 211.948,-465.537 76,-506.016 76,-379 76,-379 76,-379 76,-305 76,-232.201 165.768,-192.9 223.802,-175.1"/>
</g>
<!-- ActiveRecord::Base&#45;&gt;PosturalAnalysisScan -->
<g id="edge24" class="edge"><title>ActiveRecord::Base&#45;&gt;PosturalAnalysisScan</title>
<path fill="none" stroke="black" d="M390.046,-524.126C373.194,-517.048 352.348,-509.107 333,-504 225.31,-475.577 176,-532.219 85,-468 48.452,-442.208 38,-423.732 38,-379 38,-379 38,-379 38,-233 38,-169.863 108.785,-127.211 154.685,-106.191"/>
</g>
<!-- ActiveRecord::Base&#45;&gt;Practitioner -->
<g id="edge26" class="edge"><title>ActiveRecord::Base&#45;&gt;Practitioner</title>
<path fill="none" stroke="black" d="M385.15,-524.582C339.109,-506.624 267.407,-477.673 258,-468 221.979,-430.963 234.46,-407.86 215,-360 210.122,-348.002 204.525,-334.523 200.197,-324.16"/>
</g>
<!-- ActiveRecord::Base&#45;&gt;User -->
<g id="edge36" class="edge"><title>ActiveRecord::Base&#45;&gt;User</title>
<path fill="none" stroke="black" d="M420.083,-522.371C415.732,-501.157 409.723,-463.913 413,-432 414.248,-419.847 417.065,-406.37 419.536,-396.047"/>
</g>
</g>
</svg>
